<svg xmlns="http://www.w3.org/2000/svg" viewBox="0 0 147 70" enable-background="new 0 0 147 70"><style type="text/css">.st0{fill:#009687;} .st1{fill:#FFFFFF;}</style><path d="M15.1 30.4l3 6.5 9.5-11 2.7 8.1 8.8-11.7L53.4 15 31 48l-5.9-11.9-8.3 7.6z" class="st0"/><path d="M99.6 26.2L94 46.7h-6.8l.6-1.9c-.9.7-1.7 1.2-2.5 1.6-.8.4-1.8.6-2.9.6-1.5 0-2.7-.4-3.8-1.2-1-.8-1.8-1.9-2.2-3.3-.4-1.4-.6-2.9-.4-4.5.2-1.3.6-2.7 1.2-4.1.6-1.4 1.6-2.8 2.9-4 1.3-1.3 3-2.3 5.2-3.1 2.2-.8 4.8-1.2 7.8-1.2 1.3 0 2.3 0 3.1.1.7 0 1.9.2 3.4.5m-7.9 4.3h-1.3c-1.2 0-2.4.3-3.5 1s-2 1.6-2.7 2.8c-.7 1.2-1.2 2.5-1.3 3.8-.1.9 0 1.7.4 2.4s1 1 1.9 1c.4 0 .9-.1 1.5-.3.6-.2 1.3-.6 2.3-1.2l2.7-9.5zM108.6 30.3c-.9 0-1.4.3-1.5 1 0 .4.1.7.3 1 .2.3.7.7 1.3 1.1.6.5 1.1.9 1.6 1.3 1.2 1.1 2 2.2 2.4 3.1.4.9.5 1.8.4 2.6-.1 1-.5 2-1.3 3.1-.7 1-1.7 1.9-3 2.5-1.3.7-2.8 1-4.6 1-.7 0-1.7-.1-2.9-.4-1.3-.3-2.3-.6-3.6-1.3l1.2-4.9c1.4.6 2.5 1.1 3.3 1.3.8.3 1.6.4 2.6.4.6 0 1-.1 1.3-.4.3-.3.5-.6.6-.9.1-.4-.1-.8-.5-1.2-.4-.4-1.1-1-2.3-2-1-.9-1.9-1.8-2.5-2.7-.7-1-.9-2-.8-3.2.2-1.6 1-3.1 2.5-4.4 1.5-1.3 3.5-1.9 6.1-1.9 1.4 0 2.5.2 3.5.5s2 .8 3 1.4l-3 4.5c-.5-.3-2.9-1.5-4.1-1.5" class="st1"/><path d="M57.8 25.9l1.3-4.2h-6.9l-1.3 4.2h-1.5L45.9 31h3.4l-6.7 24 9.1-8.3L56.2 31H59l3.4-5.1zM79.3 21.2c.6 0 1.4.1 2.4.2l1.3-5c-.9-.2-1.7-.4-2.3-.5-.7-.1-1.4-.2-2.1-.2-1.8 0-3.3.3-4.5.9-1.2.6-2.2 1.3-2.9 2.2-.7.9-1.3 1.7-1.6 2.5-.3.8-.7 1.6-1 2.6l-.6 1.9h-2.6L61.8 31h4.7l-5.7 21.3 8.3-7.6.4-.4L73.3 31H76l3.5-5.1h-4.8c.5-1.8 1-3 1.7-3.7.7-.7 1.7-1 2.9-1zM117 40.9c-.2 1.6.1 2.9.8 3.9.6.9 1.3 1.4 2.1 1.8.8.3 1.7.5 2.6.5.1 0 .2 0 .2 0l.1-.1 4.4-6.5c-.6.2-1.2.4-1.7.4-1 0-1.5-.6-1.3-1.7 0-.3.1-.8.3-1.3l2.2-6.8h1.8L132 26h-3.7l1.3-4.1h-6.9l-1.3 4.1h-1.8l-3.5 5.1h3.6l-2.3 7.6c-.2.7-.3 1.4-.4 2.2z" class="st1"/></svg>